<?xml version="1.0" encoding="UTF-8"?>
<svg id="a" data-name="Layer 1" xmlns="http://www.w3.org/2000/svg" viewBox="0 0 298 298">
  <path d="M58.32,112.36c-1.81,4.49-3.3,9.14-4.44,13.92L126.28,53.88c-4.79,1.14-9.44,2.62-13.92,4.44l-54.04,54.04h0Z"/>
  <path d="M146.22,51.28c-3.49.1-6.93.37-10.31.82l-83.81,83.81c-.45,3.39-.73,6.82-.82,10.31l94.94-94.94h0Z"/>
  <path d="M162.64,52.18c-2.85-.4-5.72-.7-8.64-.84l-102.67,102.67c.15,2.92.45,5.8.85,8.64l110.47-110.47h0Z"/>
  <path d="M73.29,210.85L210.85,73.3c-11.84-9.7-26-16.66-41.52-19.95l-115.98,115.98c.54,2.56,1.19,5.08,1.93,7.56l45.6-45.6,3.92,3.92-47.58,47.58c.84,2.28,1.78,4.51,2.78,6.7l49.16-49.16,3.92,3.92-50.5,50.5c1.09,2.05,2.25,4.05,3.48,6.01l51.77-51.77,3.92,3.92-52.54,52.55c1.31,1.84,2.66,3.65,4.09,5.4h0Z"/>
  <path d="M215.05,76.94L76.94,215.05c1.51,1.65,3.09,3.23,4.71,4.77L219.82,81.66c-1.54-1.62-3.12-3.2-4.77-4.71h0Z"/>
  <path d="M96.05,66.79c-11.72,7.56-21.71,17.55-29.27,29.27l29.27-29.27h0Z"/>
  <path d="M227.73,91.08c-1.34-1.81-2.74-3.58-4.19-5.29L85.78,223.54c1.72,1.46,3.48,2.86,5.29,4.19L227.73,91.08h0Z"/>
  <path d="M237.18,106.8L106.8,237.18c2.16,1.04,4.38,1.98,6.63,2.85l47.72-47.72,3.92,3.92-45.86,45.86c2.44.78,4.93,1.45,7.45,2.04l43.16-43.16,3.92,3.92-40.54,40.54c2.79.45,5.63.78,8.5.99l36.79-36.79,3.92,3.92-33.16,33.16c3.38,0,6.73-.19,10.02-.54l28.25-28.25,3.92,3.92-22.91,22.91c4.51-.92,8.9-2.16,13.15-3.67l14.12-14.12,3.92,3.92-3.85,3.85c30.3-16.61,50.84-48.79,50.84-85.78,0-15.1-3.43-29.4-9.54-42.17h0Z"/>
  <path d="M234.5,101.63c-1.12-2.02-2.32-3.99-3.57-5.92L95.71,230.93c1.93,1.25,3.9,2.45,5.92,3.57L234.5,101.63h0Z"/>
</svg>