<svg width="250" height="250" viewBox="0 0 250 250" fill="none" xmlns="http://www.w3.org/2000/svg">
<g clip-path="url(#clip0_121_427)">
<path d="M9.00904 78.1296C6.68545 83.8673 4.78966 89.8147 3.33008 95.9382L95.9382 3.33008C89.8147 4.78966 83.8673 6.68545 78.1296 9.00904L9.00904 78.1296Z" fill="#2388FF"/>
<path d="M121.439 0C116.976 0.125826 112.581 0.478135 108.253 1.05694L1.05695 108.253C0.478148 112.581 0.125826 116.985 0 121.439L121.439 0Z" fill="#2388FF"/>
<path d="M142.452 1.15754C138.812 0.645846 135.129 0.268373 131.396 0.0754395L0.0754395 131.396C0.268373 135.129 0.645859 138.812 1.15755 142.452L142.452 1.15754Z" fill="#2388FF"/>
<path d="M28.1682 204.107L204.107 28.1682C188.957 15.7617 170.847 6.86162 150.991 2.65063L2.65063 150.991C3.34687 154.263 4.17733 157.484 5.11683 160.655L63.4499 102.322L68.4662 107.338L7.60819 168.196C8.68191 171.107 9.88984 173.959 11.1733 176.769L74.0528 113.889L79.0691 118.906L14.4783 183.497C15.8708 186.114 17.3555 188.681 18.9242 191.18L85.134 124.971L90.1502 129.987L22.9422 197.195C24.6115 199.552 26.3479 201.867 28.1766 204.099L28.1682 204.107Z" fill="#2388FF"/>
<path d="M209.475 32.8239L32.8237 209.476C34.7615 211.581 36.7831 213.611 38.855 215.582L215.582 38.8551C213.611 36.7832 211.589 34.7616 209.475 32.8239Z" fill="#2388FF"/>
<path d="M57.276 19.8386C42.2943 29.5105 29.5104 42.286 19.8469 57.2677L57.276 19.8386Z" fill="#2388FF"/>
<path d="M225.699 50.9008C223.987 48.5772 222.192 46.3291 220.33 44.1313L44.1396 220.322C46.3374 222.184 48.5855 223.979 50.9091 225.69L225.699 50.9008Z" fill="#2388FF"/>
<path d="M237.787 71.0163L71.0164 237.786C73.7845 239.112 76.6198 240.311 79.497 241.435L140.54 180.393L145.556 185.409L86.8956 244.069C90.0161 245.068 93.1953 245.923 96.4249 246.678L151.629 191.474L156.645 196.49L104.788 248.347C108.362 248.926 111.994 249.337 115.66 249.606L162.71 202.555L167.726 207.571L125.323 249.975C129.651 249.966 133.93 249.732 138.14 249.287L174.278 213.15L179.294 218.166L149.985 247.475C155.748 246.301 161.36 244.715 166.812 242.786L184.881 224.717L189.897 229.734L184.973 234.658C223.728 213.418 250 172.256 250 124.945C250 105.627 245.613 87.3402 237.795 71.0079L237.787 71.0163Z" fill="#2388FF"/>
<path d="M234.364 64.4063C232.93 61.8227 231.403 59.3062 229.801 56.84L56.8484 229.792C59.3146 231.395 61.8311 232.93 64.4147 234.356L234.364 64.4063Z" fill="#2388FF"/>
</g>
<defs>
<clipPath id="clip0_121_427">
<rect width="250" height="249.975" fill="white"/>
</clipPath>
</defs>
</svg>
